<svg height="512" viewBox="0 0 512 512" width="512" xmlns="http://www.w3.org/2000/svg"><g><path d="m128 360a24 24 0 1 0 24 24 24.027 24.027 0 0 0 -24-24zm0 32a8 8 0 1 1 8-8 8.009 8.009 0 0 1 -8 8z"/><path d="m496 376h-88v-144a128.144 128.144 0 0 0 -128-128h-224a48.051 48.051 0 0 0 -48 48v192a48.051 48.051 0 0 0 48 48h16.58a55.994 55.994 0 0 0 110.84 0h280.58v40a8 8 0 0 0 16 0v-40h16a8 8 0 0 0 0-16zm-368 48a40 40 0 1 1 40-40 40.04 40.04 0 0 1 -40 40zm104-48h-48.58a55.994 55.994 0 0 0 -110.84 0h-16.58a32.036 32.036 0 0 1 -32-32v-24h208zm96 0h-80v-184h80zm64 0h-48v-56h48zm0-72h-48v-120a8 8 0 0 0 -8-8h-96a8 8 0 0 0 -8 8v120h-208v-152a32.036 32.036 0 0 1 32-32h224a112.123 112.123 0 0 1 112 112z"/><path d="m312 272a8 8 0 0 0 -8 8v32a8 8 0 0 0 16 0v-32a8 8 0 0 0 -8-8z"/><path d="m48 280h160a8 8 0 0 0 8-8v-88a8 8 0 0 0 -8-8h-160a8 8 0 0 0 -8 8v88a8 8 0 0 0 8 8zm8-88h144v72h-144z"/></g></svg>