<?xml version="1.0"?>
<svg xmlns="http://www.w3.org/2000/svg" id="Layer_1_copy_2" data-name="Layer 1 copy 2" viewBox="0 0 64 64" width="512" height="512"><path d="M26,43H24a1,1,0,0,0,0,2h2a1,1,0,0,0,0-2Z"/><path d="M25.445,54.832a1,1,0,0,0,1.109-1.664l-6-4a.97.97,0,0,0-.108-.051.959.959,0,0,0-.1-.047.986.986,0,0,0-.694,0,.943.943,0,0,0-.1.047.974.974,0,0,0-.108.051l-6,4a1,1,0,1,0,1.109,1.664L19,51.869v3.6l-5.555,3.7a1,1,0,1,0,1.109,1.664L19,57.869V63a1,1,0,0,0,2,0V57.869l4.445,2.963a1,1,0,0,0,1.109-1.664L21,55.465v-3.6Z"/><path d="M60.445,43.832a1,1,0,0,0,1.109-1.664l-6-4a.97.97,0,0,0-.108-.051.959.959,0,0,0-.1-.047.986.986,0,0,0-.694,0,.943.943,0,0,0-.1.047.974.974,0,0,0-.108.051l-6,4a1,1,0,1,0,1.109,1.664L54,40.869v3.6l-5.555,3.7a1,1,0,1,0,1.109,1.664L54,46.869v3.6l-5.555,3.7a1,1,0,1,0,1.109,1.664L54,52.869V63a1,1,0,0,0,2,0V52.869l4.445,2.963a1,1,0,0,0,1.109-1.664L56,50.465v-3.6l4.445,2.963a1,1,0,0,0,1.109-1.664L56,44.465v-3.6Z"/><path d="M31.445,54.168a1,1,0,1,0,1.109,1.664L37,52.869V63a1,1,0,0,0,2,0V52.869l4.445,2.963a1,1,0,0,0,1.109-1.664L39,50.465v-3.6l4.445,2.963a1,1,0,0,0,1.109-1.664L39,44.465v-3.6l4.445,2.963a1,1,0,0,0,1.109-1.664l-6-4a.97.97,0,0,0-.108-.051.959.959,0,0,0-.1-.047.986.986,0,0,0-.694,0,.943.943,0,0,0-.1.047.974.974,0,0,0-.108.051l-6,4a1,1,0,1,0,1.109,1.664L37,40.869v3.6l-5.555,3.7a1,1,0,1,0,1.109,1.664L37,46.869v3.6Z"/><path d="M10,35a1,1,0,0,0,0-2H7a1,1,0,0,0,0,2Z"/><path d="M0,22a1,1,0,0,0,1,1H2a1,1,0,0,0,.809-.412l7.218-9.925,6.185,7.951a1,1,0,0,0,1.641-.09L24.974,8.95,26.447,11.5a1,1,0,0,0,1.73-1L25.865,6.5a1,1,0,0,0-.852-.5H25a1,1,0,0,0-.852.476L16.9,18.248l-6.115-7.862A.94.94,0,0,0,9.983,10a1,1,0,0,0-.792.412L1.491,21H1A1,1,0,0,0,0,22Z"/><path d="M54.832,18.445a1,1,0,0,0-1.457-.227L49.212,21.55l-2.927-4.229,8.5-5.947L56.451,13.6a1,1,0,0,0,1.6-1.2L55.8,9.4a1,1,0,0,0-1.373-.22l-9.28,6.5L40.822,9.431A1,1,0,0,0,40.061,9a1.03,1.03,0,0,0-.808.334l-7.113,8L30.5,14.5a1,1,0,0,0-1.73,1L35.135,26.5a1,1,0,1,0,1.73-1L33.2,19.16,39.9,11.615l8.275,11.954a1,1,0,0,0,1.447.212l4.148-3.319,7.395,11.093a1,1,0,0,0,1.664-1.109Z"/><path d="M63,17H61.5l-1.2-1.6a1,1,0,0,0-1.6,1.2l1.5,2a1,1,0,0,0,.8.4h2a1,1,0,0,0,0-2Z"/><path d="M39,33a1,1,0,0,0,.877-1.479l-.75-1.375a1,1,0,0,0-1.756.957l.75,1.375A1,1,0,0,0,39,33Z"/><path d="M20.972,24.093a1,1,0,1,0-1.693,1.064l2.75,4.375a1,1,0,1,0,1.693-1.064Z"/><path d="M1,43a1,1,0,0,0,0,2H6a1,1,0,0,0,0-2Z"/><path d="M10,45H20a1,1,0,0,0,0-2H10a1,1,0,0,0,0,2Z"/><path d="M20,38a1,1,0,0,0-1-1H1a1,1,0,0,0,0,2H19A1,1,0,0,0,20,38Z"/><path d="M11,50a1,1,0,0,0-1-1H1a1,1,0,0,0,0,2h9A1,1,0,0,0,11,50Z"/><path d="M23.156,38a1,1,0,0,0,1,1h.969a1,1,0,0,0,0-2h-.969A1,1,0,0,0,23.156,38Z"/><path d="M27.031,38a1,1,0,0,0,1,1H29a1,1,0,0,0,0-2h-.969A1,1,0,0,0,27.031,38Z"/></svg>
