<svg id="Layer_3" enable-background="new 0 0 64 64" height="512" viewBox="0 0 64 64" width="512" xmlns="http://www.w3.org/2000/svg"><g><path d="m56 49h4c1.105 0 2-.895 2-2v-10c0-2.209-1.791-4-4-4h-17.983l-3.171-11.099c-.491-1.717-2.06-2.901-3.846-2.901h-23.983c-1.786 0-3.355 1.184-3.846 2.901l-3.171 11.099v14c0 1.105.895 2 2 2h2" fill="#b52f28"/><path d="m40.017 33-3.143-11h-27.874c-1.105 0-2 .895-2 2v13c0 1.105.895 2 2 2h40c1.105 0 2-.895 2-2v-4z" fill="#d23f34"/><path d="m43 53h-24-12-3.5c-.828 0-1.5.672-1.5 1.5 0 .828.672 1.5 1.5 1.5h3c.828 0 1.5.672 1.5 1.5 0 .828-.672 1.5-1.5 1.5-.828 0-1.5.672-1.5 1.5 0 .828.672 1.5 1.5 1.5h40c.828 0 1.5-.672 1.5-1.5 0-.828.672-1.5 1.5-1.5h5c.828 0 1.5-.672 1.5-1.5 0-.828.672-1.5 1.5-1.5h3c.828 0 1.5-.672 1.5-1.5 0-.828-.672-1.5-1.5-1.5h-5.5" fill="#5ed3f2"/><path d="m42 56h-32c-.552 0-1-.448-1-1 0-.552.448-1 1-1h32c.552 0 1 .448 1 1 0 .552-.448 1-1 1z" fill="#95ebfc"/><path d="m46 61h-32c-.552 0-1-.448-1-1 0-.552.448-1 1-1h32c.552 0 1 .448 1 1 0 .552-.448 1-1 1z" fill="#95ebfc"/><circle cx="13" cy="49" fill="#8389b2" r="7"/><circle cx="13" cy="49" fill="#61668c" r="4"/><g><path d="m4 8h2v7h-2z" fill="#8389b2"/></g><g><path d="m13 11h2v4h-2z" fill="#8389b2"/></g><path d="m31 16 4.575-9.15c.26-.521.793-.85 1.375-.85h.1c.582 0 1.115.329 1.375.85l3.883 7.734v3.234" fill="#7bdf45"/><path d="m58 21-7.604-18.059c-.24-.57-.798-.941-1.417-.941-.597 0-1.141.346-1.393.887l-6.586 14.113" fill="#6bc13b"/><circle cx="13" cy="49" fill="#d4d9f0" r="3"/><path d="m18 34h-12l2.598-9.526c.237-.87 1.028-1.474 1.93-1.474h7.472z" fill="#e2e7f6"/><path d="m22 34h14l-2.598-9.526c-.237-.87-1.028-1.474-1.93-1.474h-9.472z" fill="#e2e7f6"/><g fill="#8389b2"><path d="m26 34v-5c0-1.105-.895-2-2-2h-2v7z"/><path d="m9 27h-1.091l-1.909 7h5v-5c0-1.105-.895-2-2-2z"/><path d="m29.969 34h2.062l.939-3.757-1.94-.486z"/></g><path d="m62 37c0-2.209-1.791-4-4-4h-1v4c0 1.105.895 2 2 2h3z" fill="#f6b940"/><path d="m2 37h4v6h-4" fill="#d23f34"/><g><path d="m12 48h2v2h-2z" fill="#61668c"/></g><g><path d="m15 36h4v2h-4z" fill="#d23f34"/></g><g><path d="m21 36h4v2h-4z" fill="#d23f34"/></g><g><path d="m61.73 22.963c-16.5-4.62-33.555-6.963-50.691-6.963h-10.039v-2h10.039c17.318 0 34.555 2.368 51.231 7.037z" fill="#61668c"/></g><circle cx="27" cy="5" fill="#f6b940" r="3"/><ellipse cx="5" cy="6" fill="#6bc13b" rx="3" ry="4"/><ellipse cx="14" cy="8" fill="#6bc13b" rx="3" ry="4"/><path d="m50.396 2.941c-.24-.57-.798-.941-1.417-.941-.597 0-1.141.346-1.393.887l-.988 2.117v8.422c0 .923.632 1.727 1.53 1.944l8.352 2.02z" fill="#7bdf45"/><path d="m4 42c-.552 0-1-.448-1-1v-2c0-.552.448-1 1-1 .552 0 1 .448 1 1v2c0 .552-.448 1-1 1z" fill="#f8ced7"/><circle cx="49" cy="49" fill="#8389b2" r="7"/><circle cx="49" cy="49" fill="#61668c" r="4"/><circle cx="49" cy="49" fill="#d4d9f0" r="3"/><g><path d="m48 48h2v2h-2z" fill="#61668c"/></g><path d="m41 45h-19c-.552 0-1-.448-1-1 0-.552.448-1 1-1h19c.552 0 1 .448 1 1 0 .552-.448 1-1 1z" fill="#d23f34"/><path d="m58 32h-17.229l-2.964-10.374c-.61-2.135-2.587-3.626-4.807-3.626h-23.983c-2.22 0-4.197 1.491-4.808 3.626l-3.17 11.099c-.026.089-.039.182-.039.275v14c0 1.654 1.346 3 3 3h1.069c.088.698.263 1.369.52 2h-2.089c-1.378 0-2.5 1.122-2.5 2.5s1.122 2.5 2.5 2.5h3c.276 0 .5.224.5.5s-.224.5-.5.5c-1.378 0-2.5 1.122-2.5 2.5s1.122 2.5 2.5 2.5h40c1.378 0 2.5-1.122 2.5-2.5 0-.276.224-.5.5-.5h5c1.378 0 2.5-1.122 2.5-2.5 0-.276.224-.5.5-.5h3c1.378 0 2.5-1.122 2.5-2.5s-1.122-2.5-2.5-2.5h-4.089c.256-.631.432-1.302.52-2h3.069c1.654 0 3-1.346 3-3v-10c0-2.757-2.243-5-5-5zm3 5v1h-2c-.551 0-1-.449-1-1v-3c1.654 0 3 1.346 3 3zm-58 1h2v4h-2zm57.5 16c.276 0 .5.224.5.5s-.224.5-.5.5h-3c-1.378 0-2.5 1.122-2.5 2.5 0 .276-.224.5-.5.5h-5c-1.378 0-2.5 1.122-2.5 2.5 0 .276-.224.5-.5.5h-40c-.276 0-.5-.224-.5-.5s.224-.5.5-.5c1.378 0 2.5-1.122 2.5-2.5s-1.122-2.5-2.5-2.5h-3c-.276 0-.5-.224-.5-.5s.224-.5.5-.5h3.265c1.468 1.826 3.715 3 6.235 3s4.768-1.174 6.235-3h23.53c1.468 1.826 3.715 3 6.235 3s4.768-1.174 6.235-3zm-39.569-4h20.139c.088.698.263 1.369.52 2h-21.179c.256-.631.432-1.302.52-2zm-7.931 5c-3.309 0-6-2.691-6-6s2.691-6 6-6 6 2.691 6 6-2.691 6-6 6zm30-6c0-3.309 2.691-6 6-6s6 2.691 6 6-2.691 6-6 6-6-2.691-6-6zm17-1h-3.069c-.495-3.94-3.859-7-7.931-7s-7.436 3.06-7.931 7h-20.138c-.495-3.94-3.859-7-7.931-7s-7.436 3.06-7.931 7h-1.069c-.551 0-1-.449-1-1v-3h3c.552 0 1-.448 1-1v-6-2h11c.552 0 1-.448 1-1v-11c0-.552-.448-1-1-1h-7.472c-1.349 0-2.54.909-2.895 2.21l-2.598 9.526c-.024.087-.01.175-.01.263h-.025v2h-2v-2.86l3.132-10.964c.367-1.28 1.553-2.175 2.885-2.175h23.983c1.333 0 2.519.895 2.885 2.176l3.171 11.099c.122.429.515.725.961.725h15.983v3c0 1.654 1.346 3 3 3h2v7c0 .551-.449 1-1 1zm-50.787-21.979.35-1.285c.118-.433.515-.736.965-.736h6.472v9h-5v-4c0-1.581-1.234-2.867-2.787-2.979zm-.54 1.979h.327c.551 0 1 .449 1 1v4h-2.691z"/><path d="m13 45c-2.206 0-4 1.794-4 4s1.794 4 4 4 4-1.794 4-4-1.794-4-4-4zm0 6c-1.103 0-2-.897-2-2s.897-2 2-2 2 .897 2 2-.897 2-2 2z"/><path d="m34.367 24.21c-.355-1.301-1.546-2.21-2.895-2.21h-9.472c-.552 0-1 .448-1 1v11c0 .552.448 1 1 1h14c.312 0 .605-.146.795-.393.189-.248.252-.569.17-.87zm-11.367 3.79h1c.551 0 1 .449 1 1v4h-2zm9.281 5 .689-2.757-1.94-.485-.811 3.242h-3.219v-4c0-1.654-1.346-3-3-3h-1v-2h8.472c.45 0 .847.303.965.737l2.254 8.263z"/><path d="m12 48h2v2h-2z"/><path d="m49 53c2.206 0 4-1.794 4-4s-1.794-4-4-4-4 1.794-4 4 1.794 4 4 4zm0-6c1.103 0 2 .897 2 2s-.897 2-2 2-2-.897-2-2 .897-2 2-2z"/><path d="m48 48h2v2h-2z"/><path d="m15 36h4v2h-4z"/><path d="m21 36h4v2h-4z"/><path d="m61.73 22.963.539-1.926c-1.182-.331-2.374-.624-3.561-.932l-7.39-17.552c-.397-.943-1.315-1.553-2.339-1.553-.981 0-1.884.575-2.299 1.464l-4.504 9.651-2.857-5.712c-.432-.865-1.301-1.403-2.369-1.403-.968 0-1.837.538-2.27 1.403l-4.293 8.586c-5.11-.523-10.244-.814-15.387-.921v-1.245c1.72-.559 3-2.5 3-4.822 0-2.757-1.794-5-4-5s-4 2.243-4 5c0 2.323 1.28 4.263 3 4.822v1.211c-.654-.007-1.307-.034-1.961-.034h-5.039v-3.178c1.72-.559 3-2.499 3-4.822 0-2.757-1.794-5-4-5s-4 2.243-4 5c0 2.323 1.28 4.263 3 4.822v3.178h-3v2h10.039c17.136 0 34.191 2.343 50.691 6.963zm-49.73-14.963c0-1.626.916-3 2-3s2 1.374 2 3-.916 3-2 3-2-1.374-2-3zm36.492-4.69c.179-.385.817-.374.982.019l6.796 16.138c-4.625-1.134-9.289-2.082-13.981-2.865zm-12.022 3.987c.092-.183.276-.297.58-.297.205 0 .389.114.48.297l3.566 7.132-.866 1.855c-2.57-.4-5.148-.75-7.732-1.044zm-33.47-1.297c0-1.626.916-3 2-3s2 1.374 2 3-.916 3-2 3-2-1.374-2-3z"/><path d="m27 9c2.206 0 4-1.794 4-4s-1.794-4-4-4-4 1.794-4 4 1.794 4 4 4zm0-6c1.103 0 2 .897 2 2s-.897 2-2 2-2-.897-2-2 .897-2 2-2z"/></g></svg>