<svg id="Layer_3" enable-background="new 0 0 64 64" height="512" viewBox="0 0 64 64" width="512" xmlns="http://www.w3.org/2000/svg"><g><path d="m60 50c1.654 0 3-1.346 3-3v-10c0-2.757-2.243-5-5-5h-17.229l-2.964-10.374c-.61-2.135-2.587-3.626-4.807-3.626h-23.983c-2.22 0-4.197 1.491-4.808 3.626l-3.17 11.099c-.026.089-.039.182-.039.275v14c0 1.654 1.346 3 3 3h1.069c.088.698.263 1.369.52 2h-2.089c-1.378 0-2.5 1.122-2.5 2.5s1.122 2.5 2.5 2.5h3c.276 0 .5.224.5.5s-.224.5-.5.5c-1.378 0-2.5 1.122-2.5 2.5s1.122 2.5 2.5 2.5h40c1.378 0 2.5-1.122 2.5-2.5 0-.276.224-.5.5-.5h5c1.378 0 2.5-1.122 2.5-2.5 0-.276.224-.5.5-.5h3c1.378 0 2.5-1.122 2.5-2.5s-1.122-2.5-2.5-2.5h-4.089c.256-.631.432-1.302.52-2zm1-13v1h-2c-.551 0-1-.449-1-1v-3c1.654 0 3 1.346 3 3zm-58 1h2v4h-2zm0 9v-3h3c.552 0 1-.448 1-1v-6-2h11c.552 0 1-.448 1-1v-11c0-.552-.448-1-1-1h-7.472c-1.349 0-2.54.909-2.895 2.21l-2.598 9.526c-.024.087-.01.175-.01.263h-.025v2h-2v-2.86l3.132-10.964c.367-1.28 1.553-2.175 2.885-2.175h23.983c1.333 0 2.519.895 2.885 2.176l3.171 11.099c.122.429.515.725.961.725h15.983v3c0 1.654 1.346 3 3 3h2v7c0 .551-.449 1-1 1h-3.069c-.495-3.94-3.859-7-7.931-7s-7.436 3.06-7.931 7h-20.138c-.495-3.94-3.859-7-7.931-7s-7.436 3.06-7.931 7h-1.069c-.551 0-1-.449-1-1zm6.213-20.979.35-1.285c.118-.433.515-.736.965-.736h6.472v9h-5v-4c0-1.581-1.234-2.867-2.787-2.979zm-.54 1.979h.327c.551 0 1 .449 1 1v4h-2.691zm46.327 21c0 3.309-2.691 6-6 6s-6-2.691-6-6 2.691-6 6-6 6 2.691 6 6zm-42 6c-3.309 0-6-2.691-6-6s2.691-6 6-6 6 2.691 6 6-2.691 6-6 6zm7.931-5h20.139c.088.698.263 1.369.52 2h-21.179c.256-.631.432-1.302.52-2zm39.569 4c.276 0 .5.224.5.5s-.224.5-.5.5h-3c-1.378 0-2.5 1.122-2.5 2.5 0 .276-.224.5-.5.5h-5c-1.378 0-2.5 1.122-2.5 2.5 0 .276-.224.5-.5.5h-40c-.276 0-.5-.224-.5-.5s.224-.5.5-.5c1.378 0 2.5-1.122 2.5-2.5s-1.122-2.5-2.5-2.5h-3c-.276 0-.5-.224-.5-.5s.224-.5.5-.5h3.265c1.468 1.826 3.715 3 6.235 3s4.768-1.174 6.235-3h23.53c1.468 1.826 3.715 3 6.235 3s4.768-1.174 6.235-3z"/><path d="m13 45c-2.206 0-4 1.794-4 4s1.794 4 4 4 4-1.794 4-4-1.794-4-4-4zm0 6c-1.103 0-2-.897-2-2s.897-2 2-2 2 .897 2 2-.897 2-2 2z"/><path d="m22 35h14c.312 0 .605-.146.795-.393.189-.248.252-.569.17-.87l-2.598-9.526c-.355-1.302-1.546-2.211-2.895-2.211h-9.472c-.552 0-1 .448-1 1v11c0 .552.448 1 1 1zm1-7h1c.551 0 1 .449 1 1v4h-2zm8.472-4c.45 0 .847.303.965.737l2.254 8.263h-2.41l.689-2.757-1.94-.485-.811 3.242h-3.219v-4c0-1.654-1.346-3-3-3h-1v-2z"/><path d="m12 48h2v2h-2z"/><path d="m49 45c-2.206 0-4 1.794-4 4s1.794 4 4 4 4-1.794 4-4-1.794-4-4-4zm0 6c-1.103 0-2-.897-2-2s.897-2 2-2 2 .897 2 2-.897 2-2 2z"/><path d="m48 48h2v2h-2z"/><path d="m15 36h4v2h-4z"/><path d="m21 36h4v2h-4z"/><path d="m61.73 22.963.539-1.926c-1.182-.331-2.374-.624-3.561-.932l-7.39-17.552c-.397-.943-1.315-1.553-2.339-1.553-.981 0-1.884.575-2.299 1.464l-4.504 9.651-2.857-5.712c-.432-.865-1.301-1.403-2.369-1.403-.968 0-1.837.538-2.27 1.403l-4.293 8.586c-5.11-.523-10.244-.814-15.387-.921v-1.245c1.72-.559 3-2.5 3-4.822 0-2.757-1.794-5-4-5s-4 2.243-4 5c0 2.323 1.28 4.263 3 4.822v1.211c-.654-.007-1.307-.034-1.961-.034h-5.039v-3.178c1.72-.559 3-2.499 3-4.822 0-2.757-1.794-5-4-5s-4 2.243-4 5c0 2.323 1.28 4.263 3 4.822v3.178h-3v2h10.039c17.136 0 34.191 2.343 50.691 6.963zm-49.73-14.963c0-1.626.916-3 2-3s2 1.374 2 3-.916 3-2 3-2-1.374-2-3zm36.492-4.69c.179-.385.817-.374.982.019l6.796 16.138c-4.625-1.134-9.289-2.082-13.981-2.865zm-12.022 3.987c.092-.183.276-.297.58-.297.205 0 .389.114.48.297l3.566 7.132-.866 1.855c-2.57-.4-5.148-.75-7.732-1.044zm-33.47-1.297c0-1.626.916-3 2-3s2 1.374 2 3-.916 3-2 3-2-1.374-2-3z"/><path d="m27 9c2.206 0 4-1.794 4-4s-1.794-4-4-4-4 1.794-4 4 1.794 4 4 4zm0-6c1.103 0 2 .897 2 2s-.897 2-2 2-2-.897-2-2 .897-2 2-2z"/></g></svg>